# xmcd CD database file
#
# Track frame offsets:
#	150
#	15975
#	26919
#	41349
#	53452
#	64054
#	75306
#	89264
#	99893
#	112185
#	124264
#	133918
#	144785
#	156590
#	172230
#	188628
#
# Disc length: 2664 seconds
#
# Revision: 0
# Processed by: cddbd v1.5.1PL0 Copyright (c) Steve Scherf et al.
# Submitted via: CDex 1.50beta9
#
DISCID=ce0a6610
DTITLE=Bobby Hackett - Featuring, CD 2
DYEAR=1900
DGENRE=Jazz
TTITLE0=Ja-DA
TTITLE1=Dardanella
TTITLE2=I Surrender, Dear
TTITLE3=Clarinet Marmalade
TTITLE4=That Old Gang Of Mine
TTITLE5=After I Say I'm Sorry
TTITLE6=Singin' The Blues
TTITLE7=But Not For Me
TTITLE8=Rose Room
TTITLE9=#S Wonderful
TTITLE10=Ja-Da
TTITLE11=Exactly Like You
TTITLE12=When A WomanLoves A Man
TTITLE13=Embraceable You
TTITLE14=I'll Never Be The Same
TTITLE15=Sweet Georgia Brown
EXTD=
EXTT0=
EXTT1=
EXTT2=
EXTT3=
EXTT4=
EXTT5=
EXTT6=
EXTT7=
EXTT8=
EXTT9=
EXTT10=
EXTT11=
EXTT12=
EXTT13=
EXTT14=
EXTT15=
PLAYORDER=
